# xmcd
#
# Track frame offsets: 
#        150
#        14622
#        35695
#        47282
#        60052
#        73227
#        87870
#        106227
#        115820
#        134390
#        150165
#        161355
#        175520
#        187812
#        202817
#        215500
#
# Disc length: 3079 seconds
#
# Revision: 4
# Processed by: cddbd v1.4PL0 Copyright (c) Steve Scherf et al.
# Submitted via: ExactAudioCopy v0.95a4
#
DISCID=bf0c0510
DTITLE=Various Artist - the greatest flok CD1
DYEAR=1900
DGENRE=Folk
TTITLE0=Over and Over
TTITLE1=Street of London
TTITLE2=Today
TTITLE3=Five hundred miles
TTITLE4=Seven Daffoldiles
TTITLE5=Last ting on my mind
TTITLE6=And I love so
TTITLE7=Edelweiss
TTITLE8=Nobody's Child
TTITLE9=Leaving on a jetplane
TTITLE10=All  over the world
TTITLE11=carry on till tomorrow
TTITLE12=Greenfield
TTITLE13=Both Sides Now
TTITLE14=Follow me
TTITLE15=Crying In The Rain
EXTD=
EXTT0=
EXTT1=
EXTT2=
EXTT3=
EXTT4=
EXTT5=
EXTT6=
EXTT7=
EXTT8=
EXTT9=
EXTT10=
EXTT11=
EXTT12=
EXTT13=
EXTT14=
EXTT15=
PLAYORDER=
